<mxfile host="app.diagrams.net" agent="Mozilla/5.0 (Windows NT 10.0; Win64; x64) AppleWebKit/537.36 (KHTML, like Gecko) Chrome/130.0.0.0 Safari/537.36" version="24.8.2">
  <diagram name="StrÃ¡nka-1" id="KHQNstconk-omwnOxw34">
    <mxGraphModel dx="794" dy="454" grid="1" gridSize="10" guides="1" tooltips="1" connect="1" arrows="1" fold="1" page="1" pageScale="1" pageWidth="827" pageHeight="1169" math="0" shadow="0">
      <root>
        <mxCell id="0" />
        <mxCell id="1" parent="0" />
        <mxCell id="0XN_llY5n1YX43B12Pyf-75" value="" style="rounded=0;whiteSpace=wrap;html=1;dashed=1;" parent="1" vertex="1">
          <mxGeometry x="350" y="20" width="120" height="240" as="geometry" />
        </mxCell>
        <mxCell id="0XN_llY5n1YX43B12Pyf-73" value="" style="rounded=0;whiteSpace=wrap;html=1;dashed=1;" parent="1" vertex="1">
          <mxGeometry x="110" y="20" width="80" height="240" as="geometry" />
        </mxCell>
        <mxCell id="0XN_llY5n1YX43B12Pyf-74" value="" style="rounded=0;whiteSpace=wrap;html=1;dashed=1;" parent="1" vertex="1">
          <mxGeometry x="190" y="20" width="160" height="240" as="geometry" />
        </mxCell>
        <mxCell id="0XN_llY5n1YX43B12Pyf-1" value="x1" style="text;html=1;align=center;verticalAlign=middle;whiteSpace=wrap;rounded=0;fontFamily=Times New Roman;fontSize=14;fontStyle=1;" parent="1" vertex="1">
          <mxGeometry x="120" y="90" width="40" height="30" as="geometry" />
        </mxCell>
        <mxCell id="0XN_llY5n1YX43B12Pyf-2" value="x2" style="text;html=1;align=center;verticalAlign=middle;whiteSpace=wrap;rounded=0;fontFamily=Times New Roman;fontSize=14;fontStyle=1;" parent="1" vertex="1">
          <mxGeometry x="120" y="130" width="40" height="30" as="geometry" />
        </mxCell>
        <mxCell id="0XN_llY5n1YX43B12Pyf-3" value="xn" style="text;html=1;align=center;verticalAlign=middle;whiteSpace=wrap;rounded=0;fontFamily=Times New Roman;fontSize=14;fontStyle=1;" parent="1" vertex="1">
          <mxGeometry x="120" y="210" width="40" height="30" as="geometry" />
        </mxCell>
        <mxCell id="0XN_llY5n1YX43B12Pyf-4" value="" style="ellipse;whiteSpace=wrap;html=1;aspect=fixed;" parent="1" vertex="1">
          <mxGeometry x="137.5" y="170" width="5" height="5" as="geometry" />
        </mxCell>
        <mxCell id="0XN_llY5n1YX43B12Pyf-6" value="" style="ellipse;whiteSpace=wrap;html=1;aspect=fixed;" parent="1" vertex="1">
          <mxGeometry x="137.5" y="180" width="5" height="5" as="geometry" />
        </mxCell>
        <mxCell id="0XN_llY5n1YX43B12Pyf-7" value="" style="ellipse;whiteSpace=wrap;html=1;aspect=fixed;" parent="1" vertex="1">
          <mxGeometry x="137.5" y="190" width="5" height="5" as="geometry" />
        </mxCell>
        <mxCell id="0XN_llY5n1YX43B12Pyf-8" value="" style="ellipse;whiteSpace=wrap;html=1;aspect=fixed;" parent="1" vertex="1">
          <mxGeometry x="210" y="50" width="30" height="30" as="geometry" />
        </mxCell>
        <mxCell id="0XN_llY5n1YX43B12Pyf-10" value="" style="ellipse;whiteSpace=wrap;html=1;aspect=fixed;" parent="1" vertex="1">
          <mxGeometry x="210" y="110" width="30" height="30" as="geometry" />
        </mxCell>
        <mxCell id="0XN_llY5n1YX43B12Pyf-13" value="" style="ellipse;whiteSpace=wrap;html=1;aspect=fixed;" parent="1" vertex="1">
          <mxGeometry x="210" y="220" width="30" height="30" as="geometry" />
        </mxCell>
        <mxCell id="0XN_llY5n1YX43B12Pyf-14" value="" style="ellipse;whiteSpace=wrap;html=1;aspect=fixed;" parent="1" vertex="1">
          <mxGeometry x="222.5" y="160" width="5" height="5" as="geometry" />
        </mxCell>
        <mxCell id="0XN_llY5n1YX43B12Pyf-15" value="" style="ellipse;whiteSpace=wrap;html=1;aspect=fixed;" parent="1" vertex="1">
          <mxGeometry x="222.5" y="170" width="5" height="5" as="geometry" />
        </mxCell>
        <mxCell id="0XN_llY5n1YX43B12Pyf-16" value="" style="ellipse;whiteSpace=wrap;html=1;aspect=fixed;" parent="1" vertex="1">
          <mxGeometry x="222.5" y="180" width="5" height="5" as="geometry" />
        </mxCell>
        <mxCell id="0XN_llY5n1YX43B12Pyf-17" value="" style="ellipse;whiteSpace=wrap;html=1;aspect=fixed;" parent="1" vertex="1">
          <mxGeometry x="290" y="50" width="30" height="30" as="geometry" />
        </mxCell>
        <mxCell id="0XN_llY5n1YX43B12Pyf-18" value="" style="ellipse;whiteSpace=wrap;html=1;aspect=fixed;" parent="1" vertex="1">
          <mxGeometry x="290" y="110" width="30" height="30" as="geometry" />
        </mxCell>
        <mxCell id="0XN_llY5n1YX43B12Pyf-19" value="" style="ellipse;whiteSpace=wrap;html=1;aspect=fixed;" parent="1" vertex="1">
          <mxGeometry x="290" y="220" width="30" height="30" as="geometry" />
        </mxCell>
        <mxCell id="0XN_llY5n1YX43B12Pyf-20" value="" style="ellipse;whiteSpace=wrap;html=1;aspect=fixed;" parent="1" vertex="1">
          <mxGeometry x="302.5" y="160" width="5" height="5" as="geometry" />
        </mxCell>
        <mxCell id="0XN_llY5n1YX43B12Pyf-21" value="" style="ellipse;whiteSpace=wrap;html=1;aspect=fixed;" parent="1" vertex="1">
          <mxGeometry x="302.5" y="170" width="5" height="5" as="geometry" />
        </mxCell>
        <mxCell id="0XN_llY5n1YX43B12Pyf-22" value="" style="ellipse;whiteSpace=wrap;html=1;aspect=fixed;" parent="1" vertex="1">
          <mxGeometry x="302.5" y="180" width="5" height="5" as="geometry" />
        </mxCell>
        <mxCell id="0XN_llY5n1YX43B12Pyf-23" value="" style="ellipse;whiteSpace=wrap;html=1;aspect=fixed;" parent="1" vertex="1">
          <mxGeometry x="370" y="50" width="30" height="30" as="geometry" />
        </mxCell>
        <mxCell id="0XN_llY5n1YX43B12Pyf-24" value="" style="ellipse;whiteSpace=wrap;html=1;aspect=fixed;" parent="1" vertex="1">
          <mxGeometry x="370" y="110" width="30" height="30" as="geometry" />
        </mxCell>
        <mxCell id="0XN_llY5n1YX43B12Pyf-25" value="" style="ellipse;whiteSpace=wrap;html=1;aspect=fixed;" parent="1" vertex="1">
          <mxGeometry x="370" y="220" width="30" height="30" as="geometry" />
        </mxCell>
        <mxCell id="0XN_llY5n1YX43B12Pyf-26" value="" style="ellipse;whiteSpace=wrap;html=1;aspect=fixed;" parent="1" vertex="1">
          <mxGeometry x="382.5" y="160" width="5" height="5" as="geometry" />
        </mxCell>
        <mxCell id="0XN_llY5n1YX43B12Pyf-27" value="" style="ellipse;whiteSpace=wrap;html=1;aspect=fixed;" parent="1" vertex="1">
          <mxGeometry x="382.5" y="170" width="5" height="5" as="geometry" />
        </mxCell>
        <mxCell id="0XN_llY5n1YX43B12Pyf-28" value="" style="ellipse;whiteSpace=wrap;html=1;aspect=fixed;" parent="1" vertex="1">
          <mxGeometry x="382.5" y="180" width="5" height="5" as="geometry" />
        </mxCell>
        <mxCell id="0XN_llY5n1YX43B12Pyf-30" value="" style="endArrow=classicThin;html=1;rounded=0;exitX=1;exitY=0.5;exitDx=0;exitDy=0;entryX=0;entryY=0.5;entryDx=0;entryDy=0;endFill=1;" parent="1" source="0XN_llY5n1YX43B12Pyf-1" target="0XN_llY5n1YX43B12Pyf-8" edge="1">
          <mxGeometry width="50" height="50" relative="1" as="geometry">
            <mxPoint x="210" y="180" as="sourcePoint" />
            <mxPoint x="260" y="130" as="targetPoint" />
          </mxGeometry>
        </mxCell>
        <mxCell id="0XN_llY5n1YX43B12Pyf-31" value="" style="endArrow=classicThin;html=1;rounded=0;exitX=1;exitY=0.5;exitDx=0;exitDy=0;entryX=0;entryY=0.5;entryDx=0;entryDy=0;endFill=1;" parent="1" source="0XN_llY5n1YX43B12Pyf-1" target="0XN_llY5n1YX43B12Pyf-10" edge="1">
          <mxGeometry width="50" height="50" relative="1" as="geometry">
            <mxPoint x="170" y="115" as="sourcePoint" />
            <mxPoint x="220" y="95" as="targetPoint" />
          </mxGeometry>
        </mxCell>
        <mxCell id="0XN_llY5n1YX43B12Pyf-32" value="" style="endArrow=classicThin;html=1;rounded=0;exitX=1;exitY=0.5;exitDx=0;exitDy=0;entryX=0;entryY=0.5;entryDx=0;entryDy=0;endFill=1;" parent="1" source="0XN_llY5n1YX43B12Pyf-1" target="0XN_llY5n1YX43B12Pyf-13" edge="1">
          <mxGeometry width="50" height="50" relative="1" as="geometry">
            <mxPoint x="180" y="125" as="sourcePoint" />
            <mxPoint x="230" y="105" as="targetPoint" />
          </mxGeometry>
        </mxCell>
        <mxCell id="0XN_llY5n1YX43B12Pyf-33" value="" style="endArrow=classicThin;html=1;rounded=0;exitX=1;exitY=0.5;exitDx=0;exitDy=0;entryX=0;entryY=0.5;entryDx=0;entryDy=0;endFill=1;" parent="1" source="0XN_llY5n1YX43B12Pyf-2" target="0XN_llY5n1YX43B12Pyf-8" edge="1">
          <mxGeometry width="50" height="50" relative="1" as="geometry">
            <mxPoint x="190" y="135" as="sourcePoint" />
            <mxPoint x="240" y="115" as="targetPoint" />
          </mxGeometry>
        </mxCell>
        <mxCell id="0XN_llY5n1YX43B12Pyf-34" value="" style="endArrow=classicThin;html=1;rounded=0;exitX=1;exitY=0.5;exitDx=0;exitDy=0;entryX=0;entryY=0.5;entryDx=0;entryDy=0;endFill=1;" parent="1" source="0XN_llY5n1YX43B12Pyf-2" target="0XN_llY5n1YX43B12Pyf-10" edge="1">
          <mxGeometry width="50" height="50" relative="1" as="geometry">
            <mxPoint x="200" y="145" as="sourcePoint" />
            <mxPoint x="250" y="125" as="targetPoint" />
          </mxGeometry>
        </mxCell>
        <mxCell id="0XN_llY5n1YX43B12Pyf-35" value="" style="endArrow=classicThin;html=1;rounded=0;exitX=1;exitY=0.5;exitDx=0;exitDy=0;entryX=0;entryY=0.5;entryDx=0;entryDy=0;endFill=1;" parent="1" source="0XN_llY5n1YX43B12Pyf-3" target="0XN_llY5n1YX43B12Pyf-13" edge="1">
          <mxGeometry width="50" height="50" relative="1" as="geometry">
            <mxPoint x="210" y="155" as="sourcePoint" />
            <mxPoint x="260" y="135" as="targetPoint" />
          </mxGeometry>
        </mxCell>
        <mxCell id="0XN_llY5n1YX43B12Pyf-36" value="" style="endArrow=classicThin;html=1;rounded=0;exitX=1;exitY=0.5;exitDx=0;exitDy=0;entryX=0;entryY=0.5;entryDx=0;entryDy=0;endFill=1;" parent="1" source="0XN_llY5n1YX43B12Pyf-2" target="0XN_llY5n1YX43B12Pyf-13" edge="1">
          <mxGeometry width="50" height="50" relative="1" as="geometry">
            <mxPoint x="220" y="165" as="sourcePoint" />
            <mxPoint x="270" y="145" as="targetPoint" />
          </mxGeometry>
        </mxCell>
        <mxCell id="0XN_llY5n1YX43B12Pyf-37" value="" style="endArrow=classicThin;html=1;rounded=0;exitX=1;exitY=0.5;exitDx=0;exitDy=0;entryX=0;entryY=0.5;entryDx=0;entryDy=0;endFill=1;" parent="1" source="0XN_llY5n1YX43B12Pyf-3" target="0XN_llY5n1YX43B12Pyf-10" edge="1">
          <mxGeometry width="50" height="50" relative="1" as="geometry">
            <mxPoint x="230" y="175" as="sourcePoint" />
            <mxPoint x="280" y="155" as="targetPoint" />
          </mxGeometry>
        </mxCell>
        <mxCell id="0XN_llY5n1YX43B12Pyf-38" value="" style="endArrow=classicThin;html=1;rounded=0;exitX=1;exitY=0.5;exitDx=0;exitDy=0;entryX=0;entryY=0.5;entryDx=0;entryDy=0;endFill=1;" parent="1" source="0XN_llY5n1YX43B12Pyf-3" target="0XN_llY5n1YX43B12Pyf-8" edge="1">
          <mxGeometry width="50" height="50" relative="1" as="geometry">
            <mxPoint x="240" y="185" as="sourcePoint" />
            <mxPoint x="290" y="165" as="targetPoint" />
          </mxGeometry>
        </mxCell>
        <mxCell id="0XN_llY5n1YX43B12Pyf-39" value="" style="endArrow=classicThin;html=1;rounded=0;exitX=1;exitY=0.5;exitDx=0;exitDy=0;entryX=0;entryY=0.5;entryDx=0;entryDy=0;endFill=1;" parent="1" source="0XN_llY5n1YX43B12Pyf-8" target="0XN_llY5n1YX43B12Pyf-17" edge="1">
          <mxGeometry width="50" height="50" relative="1" as="geometry">
            <mxPoint x="252.5" y="70" as="sourcePoint" />
            <mxPoint x="302.5" y="30" as="targetPoint" />
          </mxGeometry>
        </mxCell>
        <mxCell id="0XN_llY5n1YX43B12Pyf-40" value="" style="endArrow=classicThin;html=1;rounded=0;exitX=1;exitY=0.5;exitDx=0;exitDy=0;entryX=0;entryY=0.5;entryDx=0;entryDy=0;endFill=1;" parent="1" source="0XN_llY5n1YX43B12Pyf-8" target="0XN_llY5n1YX43B12Pyf-18" edge="1">
          <mxGeometry width="50" height="50" relative="1" as="geometry">
            <mxPoint x="250" y="75" as="sourcePoint" />
            <mxPoint x="300" y="75" as="targetPoint" />
          </mxGeometry>
        </mxCell>
        <mxCell id="0XN_llY5n1YX43B12Pyf-41" value="" style="endArrow=classicThin;html=1;rounded=0;exitX=1;exitY=0.5;exitDx=0;exitDy=0;entryX=0;entryY=0.5;entryDx=0;entryDy=0;endFill=1;" parent="1" source="0XN_llY5n1YX43B12Pyf-8" target="0XN_llY5n1YX43B12Pyf-19" edge="1">
          <mxGeometry width="50" height="50" relative="1" as="geometry">
            <mxPoint x="260" y="85" as="sourcePoint" />
            <mxPoint x="310" y="85" as="targetPoint" />
          </mxGeometry>
        </mxCell>
        <mxCell id="0XN_llY5n1YX43B12Pyf-42" value="" style="endArrow=classicThin;html=1;rounded=0;exitX=1;exitY=0.5;exitDx=0;exitDy=0;entryX=0;entryY=0.5;entryDx=0;entryDy=0;endFill=1;" parent="1" source="0XN_llY5n1YX43B12Pyf-10" target="0XN_llY5n1YX43B12Pyf-17" edge="1">
          <mxGeometry width="50" height="50" relative="1" as="geometry">
            <mxPoint x="270" y="95" as="sourcePoint" />
            <mxPoint x="320" y="95" as="targetPoint" />
          </mxGeometry>
        </mxCell>
        <mxCell id="0XN_llY5n1YX43B12Pyf-43" value="" style="endArrow=classicThin;html=1;rounded=0;exitX=1;exitY=0.5;exitDx=0;exitDy=0;entryX=0;entryY=0.5;entryDx=0;entryDy=0;endFill=1;" parent="1" source="0XN_llY5n1YX43B12Pyf-10" target="0XN_llY5n1YX43B12Pyf-18" edge="1">
          <mxGeometry width="50" height="50" relative="1" as="geometry">
            <mxPoint x="280" y="105" as="sourcePoint" />
            <mxPoint x="330" y="105" as="targetPoint" />
          </mxGeometry>
        </mxCell>
        <mxCell id="0XN_llY5n1YX43B12Pyf-44" value="" style="endArrow=classicThin;html=1;rounded=0;exitX=1;exitY=0.5;exitDx=0;exitDy=0;entryX=0;entryY=0.5;entryDx=0;entryDy=0;endFill=1;" parent="1" source="0XN_llY5n1YX43B12Pyf-10" target="0XN_llY5n1YX43B12Pyf-19" edge="1">
          <mxGeometry width="50" height="50" relative="1" as="geometry">
            <mxPoint x="290" y="115" as="sourcePoint" />
            <mxPoint x="340" y="115" as="targetPoint" />
          </mxGeometry>
        </mxCell>
        <mxCell id="0XN_llY5n1YX43B12Pyf-45" value="" style="endArrow=classicThin;html=1;rounded=0;exitX=1;exitY=0.5;exitDx=0;exitDy=0;entryX=0;entryY=0.5;entryDx=0;entryDy=0;endFill=1;" parent="1" source="0XN_llY5n1YX43B12Pyf-13" target="0XN_llY5n1YX43B12Pyf-19" edge="1">
          <mxGeometry width="50" height="50" relative="1" as="geometry">
            <mxPoint x="300" y="125" as="sourcePoint" />
            <mxPoint x="350" y="125" as="targetPoint" />
          </mxGeometry>
        </mxCell>
        <mxCell id="0XN_llY5n1YX43B12Pyf-46" value="" style="endArrow=classicThin;html=1;rounded=0;exitX=1;exitY=0.5;exitDx=0;exitDy=0;entryX=0;entryY=0.5;entryDx=0;entryDy=0;endFill=1;" parent="1" source="0XN_llY5n1YX43B12Pyf-13" target="0XN_llY5n1YX43B12Pyf-18" edge="1">
          <mxGeometry width="50" height="50" relative="1" as="geometry">
            <mxPoint x="310" y="135" as="sourcePoint" />
            <mxPoint x="360" y="135" as="targetPoint" />
          </mxGeometry>
        </mxCell>
        <mxCell id="0XN_llY5n1YX43B12Pyf-47" value="" style="endArrow=classicThin;html=1;rounded=0;exitX=1;exitY=0.5;exitDx=0;exitDy=0;entryX=0;entryY=0.5;entryDx=0;entryDy=0;endFill=1;" parent="1" source="0XN_llY5n1YX43B12Pyf-13" target="0XN_llY5n1YX43B12Pyf-17" edge="1">
          <mxGeometry width="50" height="50" relative="1" as="geometry">
            <mxPoint x="320" y="145" as="sourcePoint" />
            <mxPoint x="370" y="145" as="targetPoint" />
          </mxGeometry>
        </mxCell>
        <mxCell id="0XN_llY5n1YX43B12Pyf-48" value="" style="endArrow=classicThin;html=1;rounded=0;exitX=1;exitY=0.5;exitDx=0;exitDy=0;entryX=0;entryY=0.5;entryDx=0;entryDy=0;endFill=1;" parent="1" source="0XN_llY5n1YX43B12Pyf-17" target="0XN_llY5n1YX43B12Pyf-23" edge="1">
          <mxGeometry width="50" height="50" relative="1" as="geometry">
            <mxPoint x="250" y="75" as="sourcePoint" />
            <mxPoint x="300" y="75" as="targetPoint" />
          </mxGeometry>
        </mxCell>
        <mxCell id="0XN_llY5n1YX43B12Pyf-49" value="" style="endArrow=classicThin;html=1;rounded=0;exitX=1;exitY=0.5;exitDx=0;exitDy=0;entryX=0;entryY=0.5;entryDx=0;entryDy=0;endFill=1;" parent="1" source="0XN_llY5n1YX43B12Pyf-17" target="0XN_llY5n1YX43B12Pyf-24" edge="1">
          <mxGeometry width="50" height="50" relative="1" as="geometry">
            <mxPoint x="330" y="75" as="sourcePoint" />
            <mxPoint x="380" y="75" as="targetPoint" />
          </mxGeometry>
        </mxCell>
        <mxCell id="0XN_llY5n1YX43B12Pyf-50" value="" style="endArrow=classicThin;html=1;rounded=0;exitX=1;exitY=0.5;exitDx=0;exitDy=0;entryX=0;entryY=0.5;entryDx=0;entryDy=0;endFill=1;" parent="1" source="0XN_llY5n1YX43B12Pyf-17" target="0XN_llY5n1YX43B12Pyf-25" edge="1">
          <mxGeometry width="50" height="50" relative="1" as="geometry">
            <mxPoint x="340" y="85" as="sourcePoint" />
            <mxPoint x="390" y="85" as="targetPoint" />
          </mxGeometry>
        </mxCell>
        <mxCell id="0XN_llY5n1YX43B12Pyf-51" value="" style="endArrow=classicThin;html=1;rounded=0;exitX=1;exitY=0.5;exitDx=0;exitDy=0;entryX=0;entryY=0.5;entryDx=0;entryDy=0;endFill=1;" parent="1" source="0XN_llY5n1YX43B12Pyf-18" target="0XN_llY5n1YX43B12Pyf-23" edge="1">
          <mxGeometry width="50" height="50" relative="1" as="geometry">
            <mxPoint x="350" y="95" as="sourcePoint" />
            <mxPoint x="400" y="95" as="targetPoint" />
          </mxGeometry>
        </mxCell>
        <mxCell id="0XN_llY5n1YX43B12Pyf-52" value="" style="endArrow=classicThin;html=1;rounded=0;exitX=1;exitY=0.5;exitDx=0;exitDy=0;entryX=0;entryY=0.5;entryDx=0;entryDy=0;endFill=1;" parent="1" source="0XN_llY5n1YX43B12Pyf-18" target="0XN_llY5n1YX43B12Pyf-24" edge="1">
          <mxGeometry width="50" height="50" relative="1" as="geometry">
            <mxPoint x="360" y="105" as="sourcePoint" />
            <mxPoint x="410" y="105" as="targetPoint" />
          </mxGeometry>
        </mxCell>
        <mxCell id="0XN_llY5n1YX43B12Pyf-53" value="" style="endArrow=classicThin;html=1;rounded=0;exitX=1;exitY=0.5;exitDx=0;exitDy=0;entryX=0;entryY=0.5;entryDx=0;entryDy=0;endFill=1;" parent="1" source="0XN_llY5n1YX43B12Pyf-18" target="0XN_llY5n1YX43B12Pyf-25" edge="1">
          <mxGeometry width="50" height="50" relative="1" as="geometry">
            <mxPoint x="370" y="115" as="sourcePoint" />
            <mxPoint x="420" y="115" as="targetPoint" />
          </mxGeometry>
        </mxCell>
        <mxCell id="0XN_llY5n1YX43B12Pyf-54" value="" style="endArrow=classicThin;html=1;rounded=0;exitX=1;exitY=0.5;exitDx=0;exitDy=0;entryX=0;entryY=0.5;entryDx=0;entryDy=0;endFill=1;" parent="1" source="0XN_llY5n1YX43B12Pyf-19" target="0XN_llY5n1YX43B12Pyf-23" edge="1">
          <mxGeometry width="50" height="50" relative="1" as="geometry">
            <mxPoint x="380" y="125" as="sourcePoint" />
            <mxPoint x="430" y="125" as="targetPoint" />
          </mxGeometry>
        </mxCell>
        <mxCell id="0XN_llY5n1YX43B12Pyf-55" value="" style="endArrow=classicThin;html=1;rounded=0;exitX=1;exitY=0.5;exitDx=0;exitDy=0;entryX=0;entryY=0.5;entryDx=0;entryDy=0;endFill=1;" parent="1" source="0XN_llY5n1YX43B12Pyf-19" target="0XN_llY5n1YX43B12Pyf-24" edge="1">
          <mxGeometry width="50" height="50" relative="1" as="geometry">
            <mxPoint x="390" y="135" as="sourcePoint" />
            <mxPoint x="440" y="135" as="targetPoint" />
          </mxGeometry>
        </mxCell>
        <mxCell id="0XN_llY5n1YX43B12Pyf-56" value="" style="endArrow=classicThin;html=1;rounded=0;exitX=1;exitY=0.5;exitDx=0;exitDy=0;entryX=0;entryY=0.5;entryDx=0;entryDy=0;endFill=1;" parent="1" source="0XN_llY5n1YX43B12Pyf-19" target="0XN_llY5n1YX43B12Pyf-25" edge="1">
          <mxGeometry width="50" height="50" relative="1" as="geometry">
            <mxPoint x="400" y="145" as="sourcePoint" />
            <mxPoint x="450" y="145" as="targetPoint" />
          </mxGeometry>
        </mxCell>
        <mxCell id="0XN_llY5n1YX43B12Pyf-57" value="" style="endArrow=classicThin;html=1;rounded=0;exitX=1;exitY=0.5;exitDx=0;exitDy=0;endFill=1;entryX=0;entryY=0.5;entryDx=0;entryDy=0;" parent="1" source="0XN_llY5n1YX43B12Pyf-23" target="0XN_llY5n1YX43B12Pyf-69" edge="1">
          <mxGeometry width="50" height="50" relative="1" as="geometry">
            <mxPoint x="410" y="155" as="sourcePoint" />
            <mxPoint x="440" y="65" as="targetPoint" />
          </mxGeometry>
        </mxCell>
        <mxCell id="0XN_llY5n1YX43B12Pyf-58" value="" style="endArrow=classicThin;html=1;rounded=0;exitX=1;exitY=0.5;exitDx=0;exitDy=0;endFill=1;entryX=0;entryY=0.5;entryDx=0;entryDy=0;" parent="1" source="0XN_llY5n1YX43B12Pyf-24" target="0XN_llY5n1YX43B12Pyf-70" edge="1">
          <mxGeometry width="50" height="50" relative="1" as="geometry">
            <mxPoint x="420" y="165" as="sourcePoint" />
            <mxPoint x="440" y="125" as="targetPoint" />
          </mxGeometry>
        </mxCell>
        <mxCell id="0XN_llY5n1YX43B12Pyf-59" value="" style="endArrow=classicThin;html=1;rounded=0;exitX=1;exitY=0.5;exitDx=0;exitDy=0;endFill=1;entryX=0;entryY=0.5;entryDx=0;entryDy=0;" parent="1" source="0XN_llY5n1YX43B12Pyf-25" target="0XN_llY5n1YX43B12Pyf-71" edge="1">
          <mxGeometry width="50" height="50" relative="1" as="geometry">
            <mxPoint x="430" y="175" as="sourcePoint" />
            <mxPoint x="440" y="235" as="targetPoint" />
          </mxGeometry>
        </mxCell>
        <mxCell id="0XN_llY5n1YX43B12Pyf-60" value="" style="endArrow=classicThin;html=1;rounded=0;entryX=0.5;entryY=0;entryDx=0;entryDy=0;endFill=1;" parent="1" target="0XN_llY5n1YX43B12Pyf-8" edge="1">
          <mxGeometry width="50" height="50" relative="1" as="geometry">
            <mxPoint x="225" y="30" as="sourcePoint" />
            <mxPoint x="490" y="185" as="targetPoint" />
          </mxGeometry>
        </mxCell>
        <mxCell id="0XN_llY5n1YX43B12Pyf-61" value="" style="endArrow=classicThin;html=1;rounded=0;entryX=0.5;entryY=0;entryDx=0;entryDy=0;endFill=1;" parent="1" target="0XN_llY5n1YX43B12Pyf-10" edge="1">
          <mxGeometry width="50" height="50" relative="1" as="geometry">
            <mxPoint x="225" y="90" as="sourcePoint" />
            <mxPoint x="235" y="60" as="targetPoint" />
          </mxGeometry>
        </mxCell>
        <mxCell id="0XN_llY5n1YX43B12Pyf-62" value="" style="endArrow=classicThin;html=1;rounded=0;entryX=0.5;entryY=0;entryDx=0;entryDy=0;endFill=1;" parent="1" target="0XN_llY5n1YX43B12Pyf-13" edge="1">
          <mxGeometry width="50" height="50" relative="1" as="geometry">
            <mxPoint x="225" y="200" as="sourcePoint" />
            <mxPoint x="245" y="70" as="targetPoint" />
          </mxGeometry>
        </mxCell>
        <mxCell id="0XN_llY5n1YX43B12Pyf-63" value="" style="endArrow=classicThin;html=1;rounded=0;entryX=0.5;entryY=0;entryDx=0;entryDy=0;endFill=1;" parent="1" target="0XN_llY5n1YX43B12Pyf-17" edge="1">
          <mxGeometry width="50" height="50" relative="1" as="geometry">
            <mxPoint x="305" y="30" as="sourcePoint" />
            <mxPoint x="255" y="80" as="targetPoint" />
          </mxGeometry>
        </mxCell>
        <mxCell id="0XN_llY5n1YX43B12Pyf-64" value="" style="endArrow=classicThin;html=1;rounded=0;entryX=0.5;entryY=0;entryDx=0;entryDy=0;endFill=1;" parent="1" target="0XN_llY5n1YX43B12Pyf-18" edge="1">
          <mxGeometry width="50" height="50" relative="1" as="geometry">
            <mxPoint x="305" y="90" as="sourcePoint" />
            <mxPoint x="265" y="90" as="targetPoint" />
          </mxGeometry>
        </mxCell>
        <mxCell id="0XN_llY5n1YX43B12Pyf-65" value="" style="endArrow=classicThin;html=1;rounded=0;entryX=0.5;entryY=0;entryDx=0;entryDy=0;endFill=1;" parent="1" target="0XN_llY5n1YX43B12Pyf-19" edge="1">
          <mxGeometry width="50" height="50" relative="1" as="geometry">
            <mxPoint x="305" y="200" as="sourcePoint" />
            <mxPoint x="275" y="100" as="targetPoint" />
          </mxGeometry>
        </mxCell>
        <mxCell id="0XN_llY5n1YX43B12Pyf-66" value="" style="endArrow=classicThin;html=1;rounded=0;entryX=0.5;entryY=0;entryDx=0;entryDy=0;endFill=1;" parent="1" target="0XN_llY5n1YX43B12Pyf-23" edge="1">
          <mxGeometry width="50" height="50" relative="1" as="geometry">
            <mxPoint x="385" y="30" as="sourcePoint" />
            <mxPoint x="285" y="110" as="targetPoint" />
          </mxGeometry>
        </mxCell>
        <mxCell id="0XN_llY5n1YX43B12Pyf-67" value="" style="endArrow=classicThin;html=1;rounded=0;entryX=0.5;entryY=0;entryDx=0;entryDy=0;endFill=1;" parent="1" target="0XN_llY5n1YX43B12Pyf-24" edge="1">
          <mxGeometry width="50" height="50" relative="1" as="geometry">
            <mxPoint x="385" y="90" as="sourcePoint" />
            <mxPoint x="295" y="120" as="targetPoint" />
          </mxGeometry>
        </mxCell>
        <mxCell id="0XN_llY5n1YX43B12Pyf-68" value="" style="endArrow=classicThin;html=1;rounded=0;entryX=0.5;entryY=0;entryDx=0;entryDy=0;endFill=1;" parent="1" target="0XN_llY5n1YX43B12Pyf-25" edge="1">
          <mxGeometry width="50" height="50" relative="1" as="geometry">
            <mxPoint x="385" y="200" as="sourcePoint" />
            <mxPoint x="305" y="130" as="targetPoint" />
          </mxGeometry>
        </mxCell>
        <mxCell id="0XN_llY5n1YX43B12Pyf-69" value="y1" style="text;html=1;align=center;verticalAlign=middle;whiteSpace=wrap;rounded=0;fontFamily=Times New Roman;fontSize=14;fontStyle=1;" parent="1" vertex="1">
          <mxGeometry x="420" y="50" width="40" height="30" as="geometry" />
        </mxCell>
        <mxCell id="0XN_llY5n1YX43B12Pyf-70" value="y2" style="text;html=1;align=center;verticalAlign=middle;whiteSpace=wrap;rounded=0;fontFamily=Times New Roman;fontSize=14;fontStyle=1;" parent="1" vertex="1">
          <mxGeometry x="420" y="110" width="40" height="30" as="geometry" />
        </mxCell>
        <mxCell id="0XN_llY5n1YX43B12Pyf-71" value="yn" style="text;html=1;align=center;verticalAlign=middle;whiteSpace=wrap;rounded=0;fontFamily=Times New Roman;fontSize=14;fontStyle=1;" parent="1" vertex="1">
          <mxGeometry x="420" y="220" width="40" height="30" as="geometry" />
        </mxCell>
        <mxCell id="0XN_llY5n1YX43B12Pyf-76" value="Input layer" style="text;html=1;align=center;verticalAlign=middle;whiteSpace=wrap;rounded=0;fontFamily=Times New Roman;fontSize=14;" parent="1" vertex="1">
          <mxGeometry x="120" y="270" width="60" height="30" as="geometry" />
        </mxCell>
        <mxCell id="0XN_llY5n1YX43B12Pyf-77" value="Hidden layers" style="text;html=1;align=center;verticalAlign=middle;whiteSpace=wrap;rounded=0;fontFamily=Times New Roman;fontSize=14;" parent="1" vertex="1">
          <mxGeometry x="222.5" y="270" width="100" height="30" as="geometry" />
        </mxCell>
        <mxCell id="0XN_llY5n1YX43B12Pyf-78" value="Output&lt;div&gt;layer&lt;/div&gt;" style="text;html=1;align=center;verticalAlign=middle;whiteSpace=wrap;rounded=0;fontFamily=Times New Roman;fontSize=14;" parent="1" vertex="1">
          <mxGeometry x="384" y="270" width="60" height="30" as="geometry" />
        </mxCell>
        <mxCell id="feC5nmwZTO2o_oJGMwaF-1" value="" style="endArrow=classic;startArrow=classic;html=1;rounded=0;opacity=50;" parent="1" edge="1">
          <mxGeometry width="50" height="50" relative="1" as="geometry">
            <mxPoint x="150" y="630" as="sourcePoint" />
            <mxPoint x="460" y="630" as="targetPoint" />
          </mxGeometry>
        </mxCell>
        <mxCell id="feC5nmwZTO2o_oJGMwaF-2" value="" style="endArrow=classic;startArrow=classic;html=1;rounded=0;opacity=50;" parent="1" edge="1">
          <mxGeometry width="50" height="50" relative="1" as="geometry">
            <mxPoint x="300" y="470" as="sourcePoint" />
            <mxPoint x="300" y="720" as="targetPoint" />
          </mxGeometry>
        </mxCell>
        <mxCell id="feC5nmwZTO2o_oJGMwaF-3" value="" style="ellipse;whiteSpace=wrap;html=1;aspect=fixed;fillColor=#0000ff;strokeColor=none;" parent="1" vertex="1">
          <mxGeometry x="330" y="540" width="10" height="10" as="geometry" />
        </mxCell>
        <mxCell id="feC5nmwZTO2o_oJGMwaF-4" value="" style="ellipse;whiteSpace=wrap;html=1;aspect=fixed;fillColor=#0000ff;strokeColor=none;" parent="1" vertex="1">
          <mxGeometry x="365" y="580" width="10" height="10" as="geometry" />
        </mxCell>
        <mxCell id="feC5nmwZTO2o_oJGMwaF-9" value="" style="ellipse;whiteSpace=wrap;html=1;aspect=fixed;fillColor=#ff0000;strokeColor=none;" parent="1" vertex="1">
          <mxGeometry x="240" y="560" width="10" height="10" as="geometry" />
        </mxCell>
        <mxCell id="feC5nmwZTO2o_oJGMwaF-11" value="" style="ellipse;whiteSpace=wrap;html=1;aspect=fixed;fillColor=#0000ff;strokeColor=none;" parent="1" vertex="1">
          <mxGeometry x="280" y="610" width="10" height="10" as="geometry" />
        </mxCell>
        <mxCell id="feC5nmwZTO2o_oJGMwaF-12" value="" style="ellipse;whiteSpace=wrap;html=1;aspect=fixed;fillColor=#ff0000;strokeColor=none;" parent="1" vertex="1">
          <mxGeometry x="270" y="520" width="10" height="10" as="geometry" />
        </mxCell>
        <mxCell id="feC5nmwZTO2o_oJGMwaF-13" value="" style="ellipse;whiteSpace=wrap;html=1;aspect=fixed;fillColor=#ff0000;strokeColor=none;" parent="1" vertex="1">
          <mxGeometry x="250" y="600" width="10" height="10" as="geometry" />
        </mxCell>
        <mxCell id="feC5nmwZTO2o_oJGMwaF-14" value="" style="ellipse;whiteSpace=wrap;html=1;aspect=fixed;fillColor=#ff0000;strokeColor=none;" parent="1" vertex="1">
          <mxGeometry x="310" y="650" width="10" height="10" as="geometry" />
        </mxCell>
        <mxCell id="feC5nmwZTO2o_oJGMwaF-15" value="" style="ellipse;whiteSpace=wrap;html=1;aspect=fixed;fillColor=#ff0000;strokeColor=none;" parent="1" vertex="1">
          <mxGeometry x="260" y="660" width="10" height="10" as="geometry" />
        </mxCell>
        <mxCell id="feC5nmwZTO2o_oJGMwaF-16" value="" style="ellipse;whiteSpace=wrap;html=1;aspect=fixed;fillColor=#ff0000;strokeColor=none;" parent="1" vertex="1">
          <mxGeometry x="210" y="510" width="10" height="10" as="geometry" />
        </mxCell>
        <mxCell id="feC5nmwZTO2o_oJGMwaF-17" value="" style="ellipse;whiteSpace=wrap;html=1;aspect=fixed;fillColor=#0000ff;strokeColor=none;" parent="1" vertex="1">
          <mxGeometry x="280" y="560" width="10" height="10" as="geometry" />
        </mxCell>
        <mxCell id="feC5nmwZTO2o_oJGMwaF-19" value="" style="ellipse;whiteSpace=wrap;html=1;aspect=fixed;fillColor=#0000ff;strokeColor=none;" parent="1" vertex="1">
          <mxGeometry x="320" y="584" width="10" height="10" as="geometry" />
        </mxCell>
        <mxCell id="feC5nmwZTO2o_oJGMwaF-21" value="" style="ellipse;whiteSpace=wrap;html=1;aspect=fixed;fillColor=#0000ff;strokeColor=none;" parent="1" vertex="1">
          <mxGeometry x="320" y="620" width="10" height="10" as="geometry" />
        </mxCell>
        <mxCell id="feC5nmwZTO2o_oJGMwaF-22" value="" style="ellipse;whiteSpace=wrap;html=1;aspect=fixed;fillColor=#0000ff;strokeColor=none;" parent="1" vertex="1">
          <mxGeometry x="355" y="610" width="10" height="10" as="geometry" />
        </mxCell>
        <mxCell id="feC5nmwZTO2o_oJGMwaF-23" value="" style="ellipse;whiteSpace=wrap;html=1;aspect=fixed;fillColor=#ff0000;strokeColor=none;" parent="1" vertex="1">
          <mxGeometry x="340" y="640" width="10" height="10" as="geometry" />
        </mxCell>
        <mxCell id="feC5nmwZTO2o_oJGMwaF-27" value="" style="ellipse;whiteSpace=wrap;html=1;aspect=fixed;fillColor=#ff0000;strokeColor=none;" parent="1" vertex="1">
          <mxGeometry x="190" y="560" width="10" height="10" as="geometry" />
        </mxCell>
        <mxCell id="feC5nmwZTO2o_oJGMwaF-28" value="" style="ellipse;whiteSpace=wrap;html=1;aspect=fixed;fillColor=#ff0000;strokeColor=none;" parent="1" vertex="1">
          <mxGeometry x="210" y="594" width="10" height="10" as="geometry" />
        </mxCell>
        <mxCell id="feC5nmwZTO2o_oJGMwaF-29" value="" style="ellipse;whiteSpace=wrap;html=1;aspect=fixed;fillColor=#ff0000;strokeColor=none;" parent="1" vertex="1">
          <mxGeometry x="260" y="484" width="10" height="10" as="geometry" />
        </mxCell>
        <mxCell id="feC5nmwZTO2o_oJGMwaF-30" value="" style="ellipse;whiteSpace=wrap;html=1;aspect=fixed;fillColor=#ff0000;strokeColor=none;" parent="1" vertex="1">
          <mxGeometry x="217.5" y="660" width="10" height="10" as="geometry" />
        </mxCell>
        <mxCell id="feC5nmwZTO2o_oJGMwaF-31" value="" style="ellipse;whiteSpace=wrap;html=1;aspect=fixed;fillColor=#ff0000;strokeColor=none;" parent="1" vertex="1">
          <mxGeometry x="345" y="670" width="10" height="10" as="geometry" />
        </mxCell>
        <mxCell id="feC5nmwZTO2o_oJGMwaF-32" value="" style="ellipse;whiteSpace=wrap;html=1;aspect=fixed;fillColor=#ff0000;strokeColor=none;" parent="1" vertex="1">
          <mxGeometry x="400" y="550" width="10" height="10" as="geometry" />
        </mxCell>
        <mxCell id="feC5nmwZTO2o_oJGMwaF-33" value="" style="ellipse;whiteSpace=wrap;html=1;aspect=fixed;fillColor=#ff0000;strokeColor=none;" parent="1" vertex="1">
          <mxGeometry x="410" y="504" width="10" height="10" as="geometry" />
        </mxCell>
        <mxCell id="feC5nmwZTO2o_oJGMwaF-34" value="" style="endArrow=none;html=1;rounded=0;strokeColor=#00ff00;" parent="1" edge="1">
          <mxGeometry width="50" height="50" relative="1" as="geometry">
            <mxPoint x="280" y="550" as="sourcePoint" />
            <mxPoint x="340" y="530" as="targetPoint" />
          </mxGeometry>
        </mxCell>
        <mxCell id="feC5nmwZTO2o_oJGMwaF-35" value="" style="endArrow=none;html=1;rounded=0;strokeColor=#00ff00;" parent="1" edge="1">
          <mxGeometry width="50" height="50" relative="1" as="geometry">
            <mxPoint x="270" y="590" as="sourcePoint" />
            <mxPoint x="280" y="550" as="targetPoint" />
          </mxGeometry>
        </mxCell>
        <mxCell id="feC5nmwZTO2o_oJGMwaF-36" value="" style="endArrow=none;html=1;rounded=0;strokeColor=#00ff00;" parent="1" edge="1">
          <mxGeometry width="50" height="50" relative="1" as="geometry">
            <mxPoint x="270" y="590" as="sourcePoint" />
            <mxPoint x="280" y="640" as="targetPoint" />
          </mxGeometry>
        </mxCell>
        <mxCell id="feC5nmwZTO2o_oJGMwaF-37" value="" style="endArrow=none;html=1;rounded=0;strokeColor=#00ff00;" parent="1" edge="1">
          <mxGeometry width="50" height="50" relative="1" as="geometry">
            <mxPoint x="280" y="640" as="sourcePoint" />
            <mxPoint x="380" y="630" as="targetPoint" />
          </mxGeometry>
        </mxCell>
        <mxCell id="feC5nmwZTO2o_oJGMwaF-38" value="" style="endArrow=none;html=1;rounded=0;strokeColor=#00ff00;" parent="1" edge="1">
          <mxGeometry width="50" height="50" relative="1" as="geometry">
            <mxPoint x="380" y="630" as="sourcePoint" />
            <mxPoint x="390" y="570" as="targetPoint" />
          </mxGeometry>
        </mxCell>
        <mxCell id="feC5nmwZTO2o_oJGMwaF-39" value="" style="endArrow=none;html=1;rounded=0;strokeColor=#00ff00;" parent="1" edge="1">
          <mxGeometry width="50" height="50" relative="1" as="geometry">
            <mxPoint x="340" y="530" as="sourcePoint" />
            <mxPoint x="390" y="570" as="targetPoint" />
          </mxGeometry>
        </mxCell>
        <mxCell id="feC5nmwZTO2o_oJGMwaF-41" value="" style="ellipse;whiteSpace=wrap;html=1;aspect=fixed;fillColor=#0000ff;strokeColor=none;" parent="1" vertex="1">
          <mxGeometry x="312.5" y="560" width="10" height="10" as="geometry" />
        </mxCell>
        <mxCell id="feC5nmwZTO2o_oJGMwaF-42" value="" style="ellipse;whiteSpace=wrap;html=1;aspect=fixed;fillColor=#ff0000;strokeColor=none;" parent="1" vertex="1">
          <mxGeometry x="370" y="522" width="10" height="10" as="geometry" />
        </mxCell>
        <mxCell id="feC5nmwZTO2o_oJGMwaF-43" value="" style="ellipse;whiteSpace=wrap;html=1;aspect=fixed;fillColor=#ff0000;strokeColor=none;" parent="1" vertex="1">
          <mxGeometry x="310" y="512" width="10" height="10" as="geometry" />
        </mxCell>
        <mxCell id="feC5nmwZTO2o_oJGMwaF-44" value="" style="ellipse;whiteSpace=wrap;html=1;aspect=fixed;fillColor=#ff0000;strokeColor=none;" parent="1" vertex="1">
          <mxGeometry x="345" y="494" width="10" height="10" as="geometry" />
        </mxCell>
        <mxCell id="feC5nmwZTO2o_oJGMwaF-46" value="" style="ellipse;whiteSpace=wrap;html=1;aspect=fixed;fillColor=#ff0000;strokeColor=none;" parent="1" vertex="1">
          <mxGeometry x="409" y="580" width="10" height="10" as="geometry" />
        </mxCell>
        <mxCell id="feC5nmwZTO2o_oJGMwaF-47" value="" style="ellipse;whiteSpace=wrap;html=1;aspect=fixed;fillColor=#ff0000;strokeColor=none;" parent="1" vertex="1">
          <mxGeometry x="384" y="504" width="10" height="10" as="geometry" />
        </mxCell>
        <mxCell id="feC5nmwZTO2o_oJGMwaF-48" value="" style="ellipse;whiteSpace=wrap;html=1;aspect=fixed;fillColor=#ff0000;strokeColor=none;" parent="1" vertex="1">
          <mxGeometry x="409" y="610" width="10" height="10" as="geometry" />
        </mxCell>
        <mxCell id="feC5nmwZTO2o_oJGMwaF-49" value="" style="ellipse;whiteSpace=wrap;html=1;aspect=fixed;fillColor=#ff0000;strokeColor=none;" parent="1" vertex="1">
          <mxGeometry x="380" y="650" width="10" height="10" as="geometry" />
        </mxCell>
      </root>
    </mxGraphModel>
  </diagram>
</mxfile>
